<svg width="800" height="71" viewBox="0 0 800 71" fill="none" xmlns="http://www.w3.org/2000/svg">
    <g clip-path="url(#clip0_679_9354)">
        <mask id="mask0_679_9354" style="mask-type:luminance" maskUnits="userSpaceOnUse" x="0" y="0" width="800" height="71">
            <path d="M800 0H0V71H800V0Z" fill="white"/>
        </mask>
        <g mask="url(#mask0_679_9354)">
            <path d="M800 0H0V71H800V0Z" fill="url(#paint0_linear_679_9354)"/>
            <g opacity="0.8">
                <path d="M444.915 -21.5484L342.777 80.4297L355.348 92.9808L457.486 -8.99722L444.915 -21.5484Z" fill="url(#paint1_linear_679_9354)"/>
            </g>
            <g opacity="0.06" filter="url(#filter0_f_679_9354)">
                <path d="M815.912 10.717C815.912 4.79815 811.106 0 805.178 0C799.25 0 794.444 4.79815 794.444 10.717C794.444 16.6358 799.25 21.434 805.178 21.434C811.106 21.434 815.912 16.6358 815.912 10.717Z" fill="white"/>
                <path d="M815.912 24.7829C815.912 18.8641 811.106 14.0659 805.178 14.0659C799.25 14.0659 794.444 18.8641 794.444 24.7829C794.444 30.7017 799.25 35.4999 805.178 35.4999C811.106 35.4999 815.912 30.7017 815.912 24.7829Z" fill="white"/>
            </g>
            <g opacity="0.06" filter="url(#filter1_f_679_9354)">
                <path d="M774.8 10.717C774.8 4.79815 769.995 0 764.067 0C758.139 0 753.333 4.79815 753.333 10.717C753.333 16.6358 758.139 21.434 764.067 21.434C769.995 21.434 774.8 16.6358 774.8 10.717Z" fill="white"/>
                <path d="M788.889 10.717C788.889 4.79815 784.084 0 778.156 0C772.228 0 767.422 4.79815 767.422 10.717C767.422 16.6358 772.228 21.434 778.156 21.434C784.084 21.434 788.889 16.6358 788.889 10.717Z" fill="white"/>
                <path d="M774.8 24.7829C774.8 18.8641 769.995 14.0659 764.067 14.0659C758.139 14.0659 753.333 18.8641 753.333 24.7829C753.333 30.7017 758.139 35.4999 764.067 35.4999C769.995 35.4999 774.8 30.7017 774.8 24.7829Z" fill="white"/>
                <path d="M788.889 24.7829C788.889 18.8641 784.084 14.0659 778.156 14.0659C772.228 14.0659 767.422 18.8641 767.422 24.7829C767.422 30.7017 772.228 35.4999 778.156 35.4999C784.084 35.4999 788.889 30.7017 788.889 24.7829Z" fill="white"/>
            </g>
            <g opacity="0.02" filter="url(#filter2_f_679_9354)">
                <path d="M785.912 40.1154C785.912 34.1966 781.106 29.3984 775.178 29.3984C769.25 29.3984 764.444 34.1966 764.444 40.1154C764.444 46.0342 769.25 50.8324 775.178 50.8324C781.106 50.8324 785.912 46.0342 785.912 40.1154Z" fill="white"/>
                <path d="M800.001 40.1154C800.001 34.1966 795.195 29.3984 789.267 29.3984C783.339 29.3984 778.533 34.1966 778.533 40.1154C778.533 46.0342 783.339 50.8324 789.267 50.8324C795.195 50.8324 800.001 46.0342 800.001 40.1154Z" fill="white"/>
                <path d="M785.912 54.1813C785.912 48.2625 781.106 43.4644 775.178 43.4644C769.25 43.4644 764.444 48.2625 764.444 54.1813C764.444 60.1002 769.25 64.8983 775.178 64.8983C781.106 64.8983 785.912 60.1002 785.912 54.1813Z" fill="white"/>
                <path d="M800.001 54.1813C800.001 48.2625 795.195 43.4644 789.267 43.4644C783.339 43.4644 778.533 48.2625 778.533 54.1813C778.533 60.1002 783.339 64.8983 789.267 64.8983C795.195 64.8983 800.001 60.1002 800.001 54.1813Z" fill="white"/>
            </g>
            <g opacity="0.06" filter="url(#filter3_f_679_9354)">
                <path d="M733.69 10.717C733.69 4.79815 728.885 0 722.956 0C717.028 0 712.223 4.79815 712.223 10.717C712.223 16.6358 717.028 21.434 722.956 21.434C728.885 21.434 733.69 16.6358 733.69 10.717Z" fill="white"/>
                <path d="M747.779 10.717C747.779 4.79815 742.973 0 737.045 0C731.117 0 726.312 4.79815 726.312 10.717C726.312 16.6358 731.117 21.434 737.045 21.434C742.973 21.434 747.779 16.6358 747.779 10.717Z" fill="white"/>
                <path d="M733.69 24.7829C733.69 18.8641 728.885 14.0659 722.956 14.0659C717.028 14.0659 712.223 18.8641 712.223 24.7829C712.223 30.7017 717.028 35.4999 722.956 35.4999C728.885 35.4999 733.69 30.7017 733.69 24.7829Z" fill="white"/>
                <path d="M747.779 24.7829C747.779 18.8641 742.973 14.0659 737.045 14.0659C731.117 14.0659 726.312 18.8641 726.312 24.7829C726.312 30.7017 731.117 35.4999 737.045 35.4999C742.973 35.4999 747.779 30.7017 747.779 24.7829Z" fill="white"/>
            </g>
            <g opacity="0.06" filter="url(#filter4_f_679_9354)">
                <path d="M692.579 10.717C692.579 4.79815 687.773 0 681.845 0C675.917 0 671.111 4.79815 671.111 10.717C671.111 16.6358 675.917 21.434 681.845 21.434C687.773 21.434 692.579 16.6358 692.579 10.717Z" fill="white"/>
                <path d="M706.668 10.717C706.668 4.79815 701.862 0 695.934 0C690.006 0 685.2 4.79815 685.2 10.717C685.2 16.6358 690.006 21.434 695.934 21.434C701.862 21.434 706.668 16.6358 706.668 10.717Z" fill="white"/>
                <path d="M692.579 24.7829C692.579 18.8641 687.773 14.0659 681.845 14.0659C675.917 14.0659 671.111 18.8641 671.111 24.7829C671.111 30.7017 675.917 35.4999 681.845 35.4999C687.773 35.4999 692.579 30.7017 692.579 24.7829Z" fill="white"/>
                <path d="M706.668 24.7829C706.668 18.8641 701.862 14.0659 695.934 14.0659C690.006 14.0659 685.2 18.8641 685.2 24.7829C685.2 30.7017 690.006 35.4999 695.934 35.4999C701.862 35.4999 706.668 30.7017 706.668 24.7829Z" fill="white"/>
            </g>
            <g opacity="0.02" filter="url(#filter5_f_679_9354)">
                <path d="M744.8 40.1154C744.8 34.1966 739.995 29.3984 734.067 29.3984C728.139 29.3984 723.333 34.1966 723.333 40.1154C723.333 46.0342 728.139 50.8324 734.067 50.8324C739.995 50.8324 744.8 46.0342 744.8 40.1154Z" fill="white"/>
                <path d="M758.889 40.1154C758.889 34.1966 754.084 29.3984 748.156 29.3984C742.228 29.3984 737.422 34.1966 737.422 40.1154C737.422 46.0342 742.228 50.8324 748.156 50.8324C754.084 50.8324 758.889 46.0342 758.889 40.1154Z" fill="white"/>
                <path d="M744.8 54.1813C744.8 48.2625 739.995 43.4644 734.067 43.4644C728.139 43.4644 723.333 48.2625 723.333 54.1813C723.333 60.1002 728.139 64.8983 734.067 64.8983C739.995 64.8983 744.8 60.1002 744.8 54.1813Z" fill="white"/>
                <path d="M758.889 54.1813C758.889 48.2625 754.084 43.4644 748.156 43.4644C742.228 43.4644 737.422 48.2625 737.422 54.1813C737.422 60.1002 742.228 64.8983 748.156 64.8983C754.084 64.8983 758.889 60.1002 758.889 54.1813Z" fill="white"/>
            </g>
            <g opacity="0.02" filter="url(#filter6_f_679_9354)">
                <path d="M703.69 40.1154C703.69 34.1966 698.885 29.3984 692.956 29.3984C687.028 29.3984 682.223 34.1966 682.223 40.1154C682.223 46.0342 687.028 50.8324 692.956 50.8324C698.885 50.8324 703.69 46.0342 703.69 40.1154Z" fill="white"/>
                <path d="M717.779 40.1154C717.779 34.1966 712.973 29.3984 707.045 29.3984C701.117 29.3984 696.312 34.1966 696.312 40.1154C696.312 46.0342 701.117 50.8324 707.045 50.8324C712.973 50.8324 717.779 46.0342 717.779 40.1154Z" fill="white"/>
                <path d="M703.69 54.1813C703.69 48.2625 698.885 43.4644 692.956 43.4644C687.028 43.4644 682.223 48.2625 682.223 54.1813C682.223 60.1002 687.028 64.8983 692.956 64.8983C698.885 64.8983 703.69 60.1002 703.69 54.1813Z" fill="white"/>
                <path d="M717.779 54.1813C717.779 48.2625 712.973 43.4644 707.045 43.4644C701.117 43.4644 696.312 48.2625 696.312 54.1813C696.312 60.1002 701.117 64.8983 707.045 64.8983C712.973 64.8983 717.779 60.1002 717.779 54.1813Z" fill="white"/>
            </g>
            <g opacity="0.06" filter="url(#filter7_f_679_9354)">
                <path d="M62.5788 10.717C62.5788 4.79815 57.7732 0 51.8451 0C45.917 0 41.1113 4.79815 41.1113 10.717C41.1113 16.6358 45.917 21.434 51.8451 21.434C57.7732 21.434 62.5788 16.6358 62.5788 10.717Z" fill="white"/>
                <path d="M76.6667 10.717C76.6667 4.79815 71.8611 0 65.933 0C60.0049 0 55.1992 4.79815 55.1992 10.717C55.1992 16.6358 60.0049 21.434 65.933 21.434C71.8611 21.434 76.6667 16.6358 76.6667 10.717Z" fill="white"/>
                <path d="M62.5788 24.7829C62.5788 18.8641 57.7732 14.0659 51.8451 14.0659C45.917 14.0659 41.1113 18.8641 41.1113 24.7829C41.1113 30.7017 45.917 35.4999 51.8451 35.4999C57.7732 35.4999 62.5788 30.7017 62.5788 24.7829Z" fill="white"/>
                <path d="M76.6667 24.7829C76.6667 18.8641 71.8611 14.0659 65.933 14.0659C60.0049 14.0659 55.1992 18.8641 55.1992 24.7829C55.1992 30.7017 60.0049 35.4999 65.933 35.4999C71.8611 35.4999 76.6667 30.7017 76.6667 24.7829Z" fill="white"/>
            </g>
            <g opacity="0.06" filter="url(#filter8_f_679_9354)">
                <path d="M21.4675 10.717C21.4675 4.79815 16.6618 0 10.7337 0C4.80566 0 0 4.79815 0 10.717C0 16.6358 4.80566 21.434 10.7337 21.434C16.6618 21.434 21.4675 16.6358 21.4675 10.717Z" fill="white"/>
                <path d="M35.5554 10.717C35.5554 4.79815 30.7497 0 24.8216 0C18.8936 0 14.0879 4.79815 14.0879 10.717C14.0879 16.6358 18.8936 21.434 24.8216 21.434C30.7497 21.434 35.5554 16.6358 35.5554 10.717Z" fill="white"/>
                <path d="M21.4675 24.7829C21.4675 18.8641 16.6618 14.0659 10.7337 14.0659C4.80566 14.0659 0 18.8641 0 24.7829C0 30.7017 4.80566 35.4999 10.7337 35.4999C16.6618 35.4999 21.4675 30.7017 21.4675 24.7829Z" fill="white"/>
                <path d="M35.5554 24.7829C35.5554 18.8641 30.7497 14.0659 24.8216 14.0659C18.8936 14.0659 14.0879 18.8641 14.0879 24.7829C14.0879 30.7017 18.8936 35.4999 24.8216 35.4999C30.7497 35.4999 35.5554 30.7017 35.5554 24.7829Z" fill="white"/>
            </g>
            <g opacity="0.06" filter="url(#filter9_f_679_9354)">
                <path d="M62.5788 46.217C62.5788 40.2982 57.7732 35.5 51.8451 35.5C45.917 35.5 41.1113 40.2982 41.1113 46.217C41.1113 52.1358 45.917 56.934 51.8451 56.934C57.7732 56.934 62.5788 52.1358 62.5788 46.217Z" fill="white"/>
                <path d="M76.6667 46.217C76.6667 40.2982 71.8611 35.5 65.933 35.5C60.0049 35.5 55.1992 40.2982 55.1992 46.217C55.1992 52.1358 60.0049 56.934 65.933 56.934C71.8611 56.934 76.6667 52.1358 76.6667 46.217Z" fill="white"/>
                <path d="M62.5788 60.2829C62.5788 54.3641 57.7732 49.5659 51.8451 49.5659C45.917 49.5659 41.1113 54.3641 41.1113 60.2829C41.1113 66.2017 45.917 70.9999 51.8451 70.9999C57.7732 70.9999 62.5788 66.2017 62.5788 60.2829Z" fill="white"/>
                <path d="M76.6667 60.2829C76.6667 54.3641 71.8611 49.5659 65.933 49.5659C60.0049 49.5659 55.1992 54.3641 55.1992 60.2829C55.1992 66.2017 60.0049 70.9999 65.933 70.9999C71.8611 70.9999 76.6667 66.2017 76.6667 60.2829Z" fill="white"/>
            </g>
            <g opacity="0.06" filter="url(#filter10_f_679_9354)">
                <path d="M21.4675 46.217C21.4675 40.2982 16.6618 35.5 10.7337 35.5C4.80566 35.5 0 40.2982 0 46.217C0 52.1358 4.80566 56.934 10.7337 56.934C16.6618 56.934 21.4675 52.1358 21.4675 46.217Z" fill="white"/>
                <path d="M35.5554 46.217C35.5554 40.2982 30.7497 35.5 24.8216 35.5C18.8936 35.5 14.0879 40.2982 14.0879 46.217C14.0879 52.1358 18.8936 56.934 24.8216 56.934C30.7497 56.934 35.5554 52.1358 35.5554 46.217Z" fill="white"/>
                <path d="M21.4675 60.2829C21.4675 54.3641 16.6618 49.5659 10.7337 49.5659C4.80566 49.5659 0 54.3641 0 60.2829C0 66.2017 4.80566 70.9999 10.7337 70.9999C16.6618 70.9999 21.4675 66.2017 21.4675 60.2829Z" fill="white"/>
                <path d="M35.5554 60.2829C35.5554 54.3641 30.7497 49.5659 24.8216 49.5659C18.8936 49.5659 14.0879 54.3641 14.0879 60.2829C14.0879 66.2017 18.8936 70.9999 24.8216 70.9999C30.7497 70.9999 35.5554 66.2017 35.5554 60.2829Z" fill="white"/>
            </g>
            <g opacity="0.04" filter="url(#filter11_f_679_9354)">
                <path d="M144.801 2.95135C144.801 -2.96747 139.995 -7.76562 134.067 -7.76562C128.139 -7.76562 123.333 -2.96747 123.333 2.95135C123.333 8.87018 128.139 13.6683 134.067 13.6683C139.995 13.6683 144.801 8.87018 144.801 2.95135Z" fill="white"/>
                <path d="M158.887 2.95135C158.887 -2.96747 154.082 -7.76562 148.154 -7.76562C142.226 -7.76562 137.42 -2.96747 137.42 2.95135C137.42 8.87018 142.226 13.6683 148.154 13.6683C154.082 13.6683 158.887 8.87018 158.887 2.95135Z" fill="white"/>
                <path d="M144.801 17.0173C144.801 11.0984 139.995 6.30029 134.067 6.30029C128.139 6.30029 123.333 11.0984 123.333 17.0173C123.333 22.9361 128.139 27.7342 134.067 27.7342C139.995 27.7342 144.801 22.9361 144.801 17.0173Z" fill="white"/>
                <path d="M158.887 17.0173C158.887 11.0984 154.082 6.30029 148.154 6.30029C142.226 6.30029 137.42 11.0984 137.42 17.0173C137.42 22.9361 142.226 27.7342 148.154 27.7342C154.082 27.7342 158.887 22.9361 158.887 17.0173Z" fill="white"/>
            </g>
            <g opacity="0.04" filter="url(#filter12_f_679_9354)">
                <path d="M103.69 2.95135C103.69 -2.96747 98.8845 -7.76562 92.9564 -7.76562C87.0283 -7.76562 82.2227 -2.96747 82.2227 2.95135C82.2227 8.87018 87.0283 13.6683 92.9564 13.6683C98.8845 13.6683 103.69 8.87018 103.69 2.95135Z" fill="white"/>
                <path d="M117.777 2.95135C117.777 -2.96747 112.971 -7.76562 107.043 -7.76562C101.115 -7.76562 96.3096 -2.96747 96.3096 2.95135C96.3096 8.87018 101.115 13.6683 107.043 13.6683C112.971 13.6683 117.777 8.87018 117.777 2.95135Z" fill="white"/>
                <path d="M103.69 17.0173C103.69 11.0984 98.8845 6.30029 92.9564 6.30029C87.0283 6.30029 82.2227 11.0984 82.2227 17.0173C82.2227 22.9361 87.0283 27.7342 92.9564 27.7342C98.8845 27.7342 103.69 22.9361 103.69 17.0173Z" fill="white"/>
                <path d="M117.777 17.0173C117.777 11.0984 112.971 6.30029 107.043 6.30029C101.115 6.30029 96.3096 11.0984 96.3096 17.0173C96.3096 22.9361 101.115 27.7342 107.043 27.7342C112.971 27.7342 117.777 22.9361 117.777 17.0173Z" fill="white"/>
            </g>
            <g opacity="0.04" filter="url(#filter13_f_679_9354)">
                <path d="M144.801 38.4514C144.801 32.5325 139.995 27.7344 134.067 27.7344C128.139 27.7344 123.333 32.5325 123.333 38.4514C123.333 44.3702 128.139 49.1683 134.067 49.1683C139.995 49.1683 144.801 44.3702 144.801 38.4514Z" fill="white"/>
                <path d="M158.887 38.4514C158.887 32.5325 154.082 27.7344 148.154 27.7344C142.226 27.7344 137.42 32.5325 137.42 38.4514C137.42 44.3702 142.226 49.1683 148.154 49.1683C154.082 49.1683 158.887 44.3702 158.887 38.4514Z" fill="white"/>
                <path d="M144.801 52.5173C144.801 46.5985 139.995 41.8003 134.067 41.8003C128.139 41.8003 123.333 46.5985 123.333 52.5173C123.333 58.4361 128.139 63.2343 134.067 63.2343C139.995 63.2343 144.801 58.4361 144.801 52.5173Z" fill="white"/>
                <path d="M158.887 52.5173C158.887 46.5985 154.082 41.8003 148.154 41.8003C142.226 41.8003 137.42 46.5985 137.42 52.5173C137.42 58.4361 142.226 63.2343 148.154 63.2343C154.082 63.2343 158.887 58.4361 158.887 52.5173Z" fill="white"/>
            </g>
            <g opacity="0.04" filter="url(#filter14_f_679_9354)">
                <path d="M103.69 38.4514C103.69 32.5325 98.8845 27.7344 92.9564 27.7344C87.0283 27.7344 82.2227 32.5325 82.2227 38.4514C82.2227 44.3702 87.0283 49.1683 92.9564 49.1683C98.8845 49.1683 103.69 44.3702 103.69 38.4514Z" fill="white"/>
                <path d="M117.777 38.4514C117.777 32.5325 112.971 27.7344 107.043 27.7344C101.115 27.7344 96.3096 32.5325 96.3096 38.4514C96.3096 44.3702 101.115 49.1683 107.043 49.1683C112.971 49.1683 117.777 44.3702 117.777 38.4514Z" fill="white"/>
                <path d="M103.69 52.5173C103.69 46.5985 98.8845 41.8003 92.9564 41.8003C87.0283 41.8003 82.2227 46.5985 82.2227 52.5173C82.2227 58.4361 87.0283 63.2343 92.9564 63.2343C98.8845 63.2343 103.69 58.4361 103.69 52.5173Z" fill="white"/>
                <path d="M117.777 52.5173C117.777 46.5985 112.971 41.8003 107.043 41.8003C101.115 41.8003 96.3096 46.5985 96.3096 52.5173C96.3096 58.4361 101.115 63.2343 107.043 63.2343C112.971 63.2343 117.777 58.4361 117.777 52.5173Z" fill="white"/>
            </g>
            <path opacity="0.9" d="M727.778 114.266C747.415 114.266 763.334 98.3717 763.334 78.7656C763.334 59.1595 747.415 43.2656 727.778 43.2656C708.141 43.2656 692.223 59.1595 692.223 78.7656C692.223 98.3717 708.141 114.266 727.778 114.266Z" stroke="white" stroke-width="12"/>
            <path opacity="0.88" d="M727.778 114.266C747.415 114.266 763.334 98.3717 763.334 78.7656C763.334 59.1595 747.415 43.2656 727.778 43.2656C708.141 43.2656 692.223 59.1595 692.223 78.7656C692.223 98.3717 708.141 114.266 727.778 114.266Z" stroke="url(#paint2_linear_679_9354)" stroke-width="12"/>
            <path opacity="0.96" d="M272.223 14.4219C286.336 14.4219 297.778 2.99814 297.778 -11.0938C297.778 -25.1856 286.336 -36.6094 272.223 -36.6094C258.109 -36.6094 246.667 -25.1856 246.667 -11.0938C246.667 2.99814 258.109 14.4219 272.223 14.4219Z" stroke="url(#paint3_linear_679_9354)" stroke-width="8"/>
        </g>
    </g>
    <defs>
        <filter id="filter0_f_679_9354" x="791.444" y="-3" width="27.4678" height="41.5" filterUnits="userSpaceOnUse" color-interpolation-filters="sRGB">
            <feFlood flood-opacity="0" result="BackgroundImageFix"/>
            <feBlend mode="normal" in="SourceGraphic" in2="BackgroundImageFix" result="shape"/>
            <feGaussianBlur stdDeviation="1.5" result="effect1_foregroundBlur_679_9354"/>
        </filter>
        <filter id="filter1_f_679_9354" x="750.333" y="-3" width="41.5566" height="41.5" filterUnits="userSpaceOnUse" color-interpolation-filters="sRGB">
            <feFlood flood-opacity="0" result="BackgroundImageFix"/>
            <feBlend mode="normal" in="SourceGraphic" in2="BackgroundImageFix" result="shape"/>
            <feGaussianBlur stdDeviation="1.5" result="effect1_foregroundBlur_679_9354"/>
        </filter>
        <filter id="filter2_f_679_9354" x="761.444" y="26.3984" width="41.5566" height="41.5" filterUnits="userSpaceOnUse" color-interpolation-filters="sRGB">
            <feFlood flood-opacity="0" result="BackgroundImageFix"/>
            <feBlend mode="normal" in="SourceGraphic" in2="BackgroundImageFix" result="shape"/>
            <feGaussianBlur stdDeviation="1.5" result="effect1_foregroundBlur_679_9354"/>
        </filter>
        <filter id="filter3_f_679_9354" x="709.223" y="-3" width="41.5566" height="41.5" filterUnits="userSpaceOnUse" color-interpolation-filters="sRGB">
            <feFlood flood-opacity="0" result="BackgroundImageFix"/>
            <feBlend mode="normal" in="SourceGraphic" in2="BackgroundImageFix" result="shape"/>
            <feGaussianBlur stdDeviation="1.5" result="effect1_foregroundBlur_679_9354"/>
        </filter>
        <filter id="filter4_f_679_9354" x="668.111" y="-3" width="41.5566" height="41.5" filterUnits="userSpaceOnUse" color-interpolation-filters="sRGB">
            <feFlood flood-opacity="0" result="BackgroundImageFix"/>
            <feBlend mode="normal" in="SourceGraphic" in2="BackgroundImageFix" result="shape"/>
            <feGaussianBlur stdDeviation="1.5" result="effect1_foregroundBlur_679_9354"/>
        </filter>
        <filter id="filter5_f_679_9354" x="720.333" y="26.3984" width="41.5566" height="41.5" filterUnits="userSpaceOnUse" color-interpolation-filters="sRGB">
            <feFlood flood-opacity="0" result="BackgroundImageFix"/>
            <feBlend mode="normal" in="SourceGraphic" in2="BackgroundImageFix" result="shape"/>
            <feGaussianBlur stdDeviation="1.5" result="effect1_foregroundBlur_679_9354"/>
        </filter>
        <filter id="filter6_f_679_9354" x="679.223" y="26.3984" width="41.5566" height="41.5" filterUnits="userSpaceOnUse" color-interpolation-filters="sRGB">
            <feFlood flood-opacity="0" result="BackgroundImageFix"/>
            <feBlend mode="normal" in="SourceGraphic" in2="BackgroundImageFix" result="shape"/>
            <feGaussianBlur stdDeviation="1.5" result="effect1_foregroundBlur_679_9354"/>
        </filter>
        <filter id="filter7_f_679_9354" x="38.1113" y="-3" width="41.5557" height="41.5" filterUnits="userSpaceOnUse" color-interpolation-filters="sRGB">
            <feFlood flood-opacity="0" result="BackgroundImageFix"/>
            <feBlend mode="normal" in="SourceGraphic" in2="BackgroundImageFix" result="shape"/>
            <feGaussianBlur stdDeviation="1.5" result="effect1_foregroundBlur_679_9354"/>
        </filter>
        <filter id="filter8_f_679_9354" x="-3" y="-3" width="41.5557" height="41.5" filterUnits="userSpaceOnUse" color-interpolation-filters="sRGB">
            <feFlood flood-opacity="0" result="BackgroundImageFix"/>
            <feBlend mode="normal" in="SourceGraphic" in2="BackgroundImageFix" result="shape"/>
            <feGaussianBlur stdDeviation="1.5" result="effect1_foregroundBlur_679_9354"/>
        </filter>
        <filter id="filter9_f_679_9354" x="38.1113" y="32.5" width="41.5557" height="41.5" filterUnits="userSpaceOnUse" color-interpolation-filters="sRGB">
            <feFlood flood-opacity="0" result="BackgroundImageFix"/>
            <feBlend mode="normal" in="SourceGraphic" in2="BackgroundImageFix" result="shape"/>
            <feGaussianBlur stdDeviation="1.5" result="effect1_foregroundBlur_679_9354"/>
        </filter>
        <filter id="filter10_f_679_9354" x="-3" y="32.5" width="41.5557" height="41.5" filterUnits="userSpaceOnUse" color-interpolation-filters="sRGB">
            <feFlood flood-opacity="0" result="BackgroundImageFix"/>
            <feBlend mode="normal" in="SourceGraphic" in2="BackgroundImageFix" result="shape"/>
            <feGaussianBlur stdDeviation="1.5" result="effect1_foregroundBlur_679_9354"/>
        </filter>
        <filter id="filter11_f_679_9354" x="120.333" y="-10.7656" width="41.5547" height="41.5" filterUnits="userSpaceOnUse" color-interpolation-filters="sRGB">
            <feFlood flood-opacity="0" result="BackgroundImageFix"/>
            <feBlend mode="normal" in="SourceGraphic" in2="BackgroundImageFix" result="shape"/>
            <feGaussianBlur stdDeviation="1.5" result="effect1_foregroundBlur_679_9354"/>
        </filter>
        <filter id="filter12_f_679_9354" x="79.2227" y="-10.7656" width="41.5547" height="41.5" filterUnits="userSpaceOnUse" color-interpolation-filters="sRGB">
            <feFlood flood-opacity="0" result="BackgroundImageFix"/>
            <feBlend mode="normal" in="SourceGraphic" in2="BackgroundImageFix" result="shape"/>
            <feGaussianBlur stdDeviation="1.5" result="effect1_foregroundBlur_679_9354"/>
        </filter>
        <filter id="filter13_f_679_9354" x="120.333" y="24.7344" width="41.5547" height="41.5" filterUnits="userSpaceOnUse" color-interpolation-filters="sRGB">
            <feFlood flood-opacity="0" result="BackgroundImageFix"/>
            <feBlend mode="normal" in="SourceGraphic" in2="BackgroundImageFix" result="shape"/>
            <feGaussianBlur stdDeviation="1.5" result="effect1_foregroundBlur_679_9354"/>
        </filter>
        <filter id="filter14_f_679_9354" x="79.2227" y="24.7344" width="41.5547" height="41.5" filterUnits="userSpaceOnUse" color-interpolation-filters="sRGB">
            <feFlood flood-opacity="0" result="BackgroundImageFix"/>
            <feBlend mode="normal" in="SourceGraphic" in2="BackgroundImageFix" result="shape"/>
            <feGaussianBlur stdDeviation="1.5" result="effect1_foregroundBlur_679_9354"/>
        </filter>
        <linearGradient id="paint0_linear_679_9354" x1="1.8047e-06" y1="71" x2="799.98" y2="-0.220637" gradientUnits="userSpaceOnUse">
            <stop stop-color="#FFAF53"/>
            <stop offset="0.55" stop-color="#F07727"/>
            <stop offset="1" stop-color="#FF4174"/>
        </linearGradient>
        <linearGradient id="paint1_linear_679_9354" x1="355.348" y1="92.9808" x2="451.12" y2="-16.1011" gradientUnits="userSpaceOnUse">
            <stop stop-color="#FF4174"/>
            <stop offset="0.55" stop-color="#F07727"/>
            <stop offset="1" stop-color="#FFAF53"/>
        </linearGradient>
        <linearGradient id="paint2_linear_679_9354" x1="766.667" y1="86.5312" x2="688.889" y2="86.5312" gradientUnits="userSpaceOnUse">
            <stop stop-color="#FFAF53"/>
            <stop offset="0.55" stop-color="#F07727"/>
            <stop offset="1" stop-color="#FF4174"/>
        </linearGradient>
        <linearGradient id="paint3_linear_679_9354" x1="300" y1="-5.54688" x2="244.445" y2="-5.54688" gradientUnits="userSpaceOnUse">
            <stop stop-color="white" stop-opacity="0.02"/>
            <stop offset="1" stop-color="white" stop-opacity="0.12"/>
        </linearGradient>
        <clipPath id="clip0_679_9354">
            <rect width="800" height="71" fill="white"/>
        </clipPath>
    </defs>
</svg>
